# xmcd
# Copyright (C) 1995-1998 Ti Kan
#
# Track frame offsets:
#       150
#       2265
#       83972
#       163219
#       235232
#
# Disc length: 3160 seconds
#
# Revision: 0
# Processed by: cddbd v1.5.2PL0 Copyright (c) Steve Scherf et al.
# Submitted via: CD-Import v1.0
#
DISCID=2e0c5605
DTITLE=Michael Ende - Momo3
DYEAR=1900
DGENRE=
TTITLE0=Anmodi Momo3
TTITLE1=Momo31.
TTITLE2=Momo3.2
TTITLE3=Momo3.3
TTITLE4=Abmodi Momo3
EXTD=
EXTT0=
EXTT1=
EXTT2=
EXTT3=
EXTT4=
PLAYORDER=
